<svg width="34" height="34" viewBox="0 0 34 34" fill="none" xmlns="http://www.w3.org/2000/svg">
<g clip-path="url(#clip0_478_5)">
<path d="M17.022 11.3309C13.8956 11.3309 11.3442 13.8784 11.3442 17C11.3442 20.1216 13.8956 22.6691 17.022 22.6691C20.1484 22.6691 22.6998 20.1216 22.6998 17C22.6998 13.8784 20.1484 11.3309 17.022 11.3309ZM34.0512 17C34.0512 14.6524 34.0725 12.3261 33.9405 9.98276C33.8084 7.26092 33.1866 4.84529 31.1931 2.85494C29.1955 0.860345 26.7804 0.243679 24.0543 0.11184C21.7031 -0.0199994 19.3732 0.00126499 17.0262 0.00126499C14.675 0.00126499 12.3451 -0.0199994 9.99817 0.11184C7.27213 0.243679 4.85277 0.864598 2.85935 2.85494C0.861674 4.84954 0.244055 7.26092 0.112012 9.98276C-0.0200303 12.3303 0.00126695 14.6567 0.00126695 17C0.00126695 19.3433 -0.0200303 21.6739 0.112012 24.0172C0.244055 26.7391 0.865933 29.1547 2.85935 31.1451C4.85703 33.1397 7.27213 33.7563 9.99817 33.8882C12.3494 34.02 14.6793 33.9987 17.0262 33.9987C19.3775 33.9987 21.7074 34.02 24.0543 33.8882C26.7804 33.7563 29.1997 33.1354 31.1931 31.1451C33.1908 29.1505 33.8084 26.7391 33.9405 24.0172C34.0768 21.6739 34.0512 19.3476 34.0512 17V17ZM17.022 25.7226C12.1875 25.7226 8.28588 21.827 8.28588 17C8.28588 12.173 12.1875 8.27736 17.022 8.27736C21.8564 8.27736 25.7581 12.173 25.7581 17C25.7581 21.827 21.8564 25.7226 17.022 25.7226ZM26.1159 9.95724C24.9871 9.95724 24.0756 9.04713 24.0756 7.92011C24.0756 6.7931 24.9871 5.88299 26.1159 5.88299C27.2446 5.88299 28.1562 6.7931 28.1562 7.92011C28.1565 8.18773 28.104 8.45278 28.0015 8.70009C27.8991 8.94739 27.7489 9.1721 27.5593 9.36133C27.3698 9.55056 27.1448 9.7006 26.8971 9.80286C26.6494 9.90512 26.3839 9.95758 26.1159 9.95724V9.95724Z" fill="#666666"/>
</g>
<defs>
<clipPath id="clip0_478_5">
<rect width="34" height="34" fill="white"/>
</clipPath>
</defs>
</svg>
