<svg width="40" height="40" viewBox="0 0 40 40" fill="none" xmlns="http://www.w3.org/2000/svg">
<path d="M36 33.25H32V16.8438L20 23.875L8 16.8438V33.25H4V10.75H6.4L20 18.7188L33.6 10.75H36M36 7H4C1.78 7 0 8.66875 0 10.75V33.25C0 34.2446 0.421427 35.1984 1.17157 35.9016C1.92172 36.6049 2.93913 37 4 37H36C37.0609 37 38.0783 36.6049 38.8284 35.9016C39.5786 35.1984 40 34.2446 40 33.25V10.75C40 9.75544 39.5786 8.80161 38.8284 8.09835C38.0783 7.39509 37.0609 7 36 7V7Z" fill="black" fill-opacity="0.6"/>
</svg>
