<svg width="44" height="44" viewBox="0 0 44 44" fill="none" xmlns="http://www.w3.org/2000/svg">
<path d="M22 16.2723C18.8461 16.2723 16.2722 18.8461 16.2722 22C16.2722 25.1539 18.8461 27.7277 22 27.7277C25.1539 27.7277 27.7277 25.1539 27.7277 22C27.7277 18.8461 25.1539 16.2723 22 16.2723ZM39.1789 22C39.1789 19.6281 39.2004 17.2777 39.0672 14.9102C38.9339 12.1602 38.3066 9.71953 36.2957 7.70859C34.2804 5.69336 31.8441 5.07031 29.0941 4.93711C26.7222 4.80391 24.3718 4.82539 22.0043 4.82539C19.6324 4.82539 17.282 4.80391 14.9144 4.93711C12.1644 5.07031 9.72379 5.69766 7.71285 7.70859C5.69762 9.72383 5.07457 12.1602 4.94137 14.9102C4.80816 17.282 4.82965 19.6324 4.82965 22C4.82965 24.3676 4.80816 26.7223 4.94137 29.0898C5.07457 31.8398 5.70191 34.2805 7.71285 36.2914C9.72809 38.3066 12.1644 38.9297 14.9144 39.0629C17.2863 39.1961 19.6367 39.1746 22.0043 39.1746C24.3761 39.1746 26.7265 39.1961 29.0941 39.0629C31.8441 38.9297 34.2847 38.3023 36.2957 36.2914C38.3109 34.2762 38.9339 31.8398 39.0672 29.0898C39.2047 26.7223 39.1789 24.3719 39.1789 22V22ZM22 30.8129C17.123 30.8129 13.1871 26.877 13.1871 22C13.1871 17.123 17.123 13.1871 22 13.1871C26.8769 13.1871 30.8129 17.123 30.8129 22C30.8129 26.877 26.8769 30.8129 22 30.8129ZM31.1738 14.8844C30.0351 14.8844 29.1156 13.9648 29.1156 12.8262C29.1156 11.6875 30.0351 10.768 31.1738 10.768C32.3125 10.768 33.232 11.6875 33.232 12.8262C33.2323 13.0966 33.1793 13.3643 33.076 13.6142C32.9727 13.8641 32.8211 14.0911 32.6299 14.2823C32.4387 14.4735 32.2117 14.6251 31.9618 14.7284C31.712 14.8317 31.4442 14.8847 31.1738 14.8844V14.8844Z" fill="black" fill-opacity="0.6"/>
</svg>
