<svg width="331" height="217" viewBox="0 0 331 217" fill="none" xmlns="http://www.w3.org/2000/svg">
<path fill-rule="evenodd" clip-rule="evenodd" d="M275.604 0.61377H303.854C303.842 0.947625 303.836 1.28302 303.836 1.61984C303.836 16.6222 315.998 28.784 331 28.784V189.757C315.998 189.757 303.836 201.918 303.836 216.921H27.1643C27.1643 201.918 15.0025 189.757 0.000144958 189.757H0V28.784H0.000144958C15.0025 28.784 27.1643 16.6222 27.1643 1.61984C27.1643 1.28302 27.1581 0.947625 27.146 0.61377H54.3905C54.3494 0.943383 54.3282 1.27919 54.3282 1.61993C54.3282 6.06509 57.9317 9.66858 62.3768 9.66858C66.822 9.66858 70.4255 6.06509 70.4255 1.61993C70.4255 1.27919 70.4043 0.943383 70.3632 0.61377H88.5975C88.5564 0.943402 88.5352 1.27923 88.5352 1.62C88.5352 6.06512 92.1387 9.66861 96.5838 9.66861C101.029 9.66861 104.632 6.06512 104.632 1.62C104.632 1.27923 104.611 0.943402 104.57 0.61377H122.804C122.763 0.943402 122.742 1.27923 122.742 1.62C122.742 6.06512 126.345 9.66861 130.79 9.66861C135.236 9.66861 138.839 6.06512 138.839 1.62C138.839 1.27923 138.818 0.943402 138.777 0.61377H157.011C156.97 0.943402 156.949 1.27923 156.949 1.62C156.949 6.06512 160.552 9.66861 164.997 9.66861C169.442 9.66861 173.046 6.06512 173.046 1.62C173.046 1.27923 173.025 0.943402 172.984 0.61377H191.218C191.177 0.943402 191.155 1.27923 191.155 1.62C191.155 6.06512 194.759 9.66861 199.204 9.66861C203.649 9.66861 207.253 6.06512 207.253 1.62C207.253 1.27923 207.231 0.943402 207.19 0.61377H225.424C225.383 0.943402 225.362 1.27923 225.362 1.62C225.362 6.06512 228.966 9.66861 233.411 9.66861C237.856 9.66861 241.459 6.06512 241.459 1.62C241.459 1.27923 241.438 0.943402 241.397 0.61377H259.631C259.59 0.943402 259.569 1.27923 259.569 1.62C259.569 6.06512 263.172 9.66861 267.617 9.66861C272.062 9.66861 275.666 6.06512 275.666 1.62C275.666 1.27923 275.645 0.943402 275.604 0.61377Z" fill="#E2E2E2"/>
</svg>
