<svg width="130" height="130" viewBox="0 0 130 130" fill="none" xmlns="http://www.w3.org/2000/svg">
<path d="M61.3548 67.686C61.3548 69.3651 62.0218 70.9755 63.2091 72.1628C64.3964 73.3501 66.0068 74.0172 67.6859 74.0172C69.365 74.0172 70.9753 73.3501 72.1626 72.1628C73.3499 70.9755 74.017 69.3651 74.017 67.686C74.017 66.0069 73.3499 64.3965 72.1626 63.2092C70.9753 62.0219 69.365 61.3548 67.6859 61.3548C66.0068 61.3548 64.3964 62.0219 63.2091 63.2092C62.0218 64.3965 61.3548 66.0069 61.3548 67.686ZM87.7343 67.686C87.7343 69.3651 88.4014 70.9755 89.5887 72.1628C90.776 73.3501 92.3863 74.0172 94.0654 74.0172C95.7445 74.0172 97.3549 73.3501 98.5422 72.1628C99.7295 70.9755 100.397 69.3651 100.397 67.686C100.397 66.0069 99.7295 64.3965 98.5422 63.2092C97.3549 62.0219 95.7445 61.3548 94.0654 61.3548C92.3863 61.3548 90.776 62.0219 89.5887 63.2092C88.4014 64.3965 87.7343 66.0069 87.7343 67.686ZM34.9753 67.686C34.9753 69.3651 35.6423 70.9755 36.8296 72.1628C38.0169 73.3501 39.6272 74.0172 41.3063 74.0172C42.9855 74.0172 44.5958 73.3501 45.7831 72.1628C46.9704 70.9755 47.6374 69.3651 47.6374 67.686C47.6374 66.0069 46.9704 64.3965 45.7831 63.2092C44.5958 62.0219 42.9855 61.3548 41.3063 61.3548C39.6272 61.3548 38.0169 62.0219 36.8296 63.2092C35.6423 64.3965 34.9753 66.0069 34.9753 67.686ZM122.186 44.7883C119.205 37.7053 114.932 31.3477 109.484 25.8871C104.075 20.4581 97.6535 16.1427 90.5833 13.1852C83.3289 10.1383 75.6261 8.59509 67.6859 8.59509H67.4221C59.4291 8.63466 51.6867 10.2175 44.4059 13.3303C37.3963 16.3181 31.035 20.6412 25.6765 26.0586C20.2819 31.506 16.0479 37.8372 13.1198 44.8938C10.0862 52.201 8.55615 59.9699 8.59572 67.963C8.64048 77.123 10.8075 86.148 14.9268 94.3297V114.378C14.9268 115.988 15.566 117.531 16.7039 118.669C17.8417 119.806 19.385 120.446 20.9941 120.446H41.0557C49.2373 124.565 58.2622 126.732 67.4221 126.777H67.6991C75.5997 126.777 83.263 125.247 90.4778 122.253C97.5123 119.331 103.91 115.065 109.313 109.696C114.76 104.301 119.047 97.9965 122.041 90.9662C125.154 83.6854 126.736 75.9429 126.776 67.9498C126.816 59.9171 125.259 52.1219 122.186 44.7883ZM102.256 102.56C93.0102 111.714 80.7438 116.753 67.6859 116.753H67.4617C59.5082 116.713 51.6076 114.734 44.6302 111.015L43.5222 110.421H24.951V91.85L24.3575 90.742C20.638 83.7645 18.6595 75.8638 18.6199 67.9102C18.5672 54.7599 23.5925 42.4141 32.8121 33.1152C42.0186 23.8163 54.3246 18.6722 67.4748 18.6194H67.6991C74.294 18.6194 80.691 19.8989 86.7187 22.4313C92.6014 24.8979 97.8773 28.4459 102.415 32.9833C106.939 37.5074 110.5 42.7966 112.966 48.6793C115.525 54.7731 116.805 61.2361 116.778 67.9102C116.699 81.0474 111.542 93.3536 102.256 102.56Z" fill="url(#paint0_radial_310_162)"/>
<defs>
<radialGradient id="paint0_radial_310_162" cx="0" cy="0" r="1" gradientUnits="userSpaceOnUse" gradientTransform="translate(26.5 26.0001) rotate(42.9047) scale(116.043)">
<stop stop-color="#F23B2F"/>
<stop offset="1" stop-color="#F19D1F" stop-opacity="0"/>
</radialGradient>
</defs>
</svg>
