<svg width="150" height="150" viewBox="0 0 150 150" fill="none" xmlns="http://www.w3.org/2000/svg">
<path d="M75 59.375C73.75 57.8125 72.1354 56.5875 70.1563 55.7C68.1771 54.8167 66.0417 54.375 63.75 54.375C60 54.375 56.7708 55.7292 54.0625 58.4375C51.3542 61.1458 50 64.375 50 68.125C50 71.3542 50.8063 74.375 52.4188 77.1875C54.0354 80 57.9167 84.2188 64.0625 89.8438L70.7813 96.0938C71.9271 97.2396 73.3333 97.8125 75 97.8125C76.6667 97.8125 78.0729 97.2396 79.2188 96.0938L85.7813 90C91.8229 84.375 95.7042 80.1042 97.425 77.1875C99.1417 74.2708 100 71.25 100 68.125C100 64.375 98.6458 61.1458 95.9375 58.4375C93.2292 55.7292 90 54.375 86.25 54.375C84.0625 54.375 81.9542 54.8167 79.925 55.7C77.8917 56.5875 76.25 57.8125 75 59.375ZM75 137.031H73.4375C72.9167 137.031 72.4479 136.927 72.0313 136.719C58.3854 132.448 47.1354 123.983 38.2813 111.325C29.4271 98.6708 25 84.6875 25 69.375V39.8438C25 37.2396 25.7562 34.8958 27.2687 32.8125C28.7771 30.7292 30.7292 29.2188 33.125 28.2812L70.625 14.2188C72.0833 13.6979 73.5417 13.4375 75 13.4375C76.4583 13.4375 77.9167 13.6979 79.375 14.2188L116.875 28.2812C119.271 29.2188 121.225 30.7292 122.738 32.8125C124.246 34.8958 125 37.2396 125 39.8438V69.375C125 84.6875 120.573 98.6708 111.719 111.325C102.865 123.983 91.6146 132.448 77.9688 136.719C77.4479 136.927 76.4583 137.031 75 137.031ZM75 124.375C85.8333 120.938 94.7917 114.062 101.875 103.75C108.958 93.4375 112.5 81.9792 112.5 69.375V39.8438L75 25.7812L37.5 39.8438V69.375C37.5 81.9792 41.0417 93.4375 48.125 103.75C55.2083 114.062 64.1667 120.938 75 124.375Z" fill="url(#paint0_radial_310_158)"/>
<defs>
<radialGradient id="paint0_radial_310_158" cx="0" cy="0" r="1" gradientUnits="userSpaceOnUse" gradientTransform="translate(25 45.5) rotate(35.9421) scale(123.516 99.9373)">
<stop stop-color="#F23B2F"/>
<stop offset="1" stop-color="#F19D1F" stop-opacity="0"/>
</radialGradient>
</defs>
</svg>
