<svg width="331" height="434" viewBox="0 0 331 434" fill="none" xmlns="http://www.w3.org/2000/svg">
<path fill-rule="evenodd" clip-rule="evenodd" d="M0.000144958 27.1643C15.0025 27.1643 27.1643 15.0025 27.1643 0.000144958V0H303.836V0.000144958C303.836 15.0025 315.998 27.1643 331 27.1643V406.456C315.998 406.456 303.836 418.618 303.836 433.62L275.666 433.62C275.666 429.175 272.062 425.571 267.617 425.571C263.172 425.571 259.569 429.175 259.569 433.62H241.459C241.459 429.175 237.856 425.571 233.411 425.571C228.966 425.571 225.362 429.175 225.362 433.62H207.253C207.253 429.175 203.649 425.571 199.204 425.571C194.759 425.571 191.155 429.175 191.155 433.62H173.046C173.046 429.175 169.442 425.571 164.997 425.571C160.552 425.571 156.949 429.175 156.949 433.62H138.839C138.839 429.175 135.236 425.571 130.79 425.571C126.345 425.571 122.742 429.175 122.742 433.62H104.632C104.632 429.175 101.029 425.571 96.5838 425.571C92.1387 425.571 88.5352 429.175 88.5352 433.62L70.4255 433.62C70.4255 429.175 66.822 425.571 62.3768 425.571C57.9317 425.571 54.3282 429.175 54.3282 433.62L27.1643 433.62C27.1643 418.618 15.0025 406.456 0.000144958 406.456H0V27.1643H0.000144958Z" fill="#374B83"/>
</svg>
