<svg width="130" height="130" viewBox="0 0 130 130" fill="none" xmlns="http://www.w3.org/2000/svg">
<path d="M52.0676 17.2521C43.447 17.2521 30.2303 22.2273 34.8264 53.0373C34.8968 53.5031 34.9889 54.0069 35.0837 54.5458C35.9232 59.1798 37.2178 66.3542 28.9791 72.2692C34.5826 76.8679 42.5641 81.464 52.2626 83.4546C51.8794 85.6542 51.3986 87.8356 50.8218 89.9925C50.0337 92.885 48.3816 94.9352 45.4295 95.81C42.8295 96.5792 40.1049 97.2021 37.3153 97.8413C36.5976 98.0038 35.8745 98.169 35.1487 98.3396C31.6685 99.1494 28.1205 100.046 24.9762 101.313C21.8237 102.586 18.8932 104.301 16.7753 106.857C14.6195 109.465 13.4657 112.753 13.5443 116.865C13.5714 118.143 14.6655 119.167 16.0089 119.167H113.991C115.334 119.167 116.428 118.143 116.456 116.865C116.534 112.753 115.383 109.465 113.224 106.857C111.109 104.301 108.176 102.584 105.026 101.313C101.879 100.043 98.3314 99.1467 94.8484 98.3369L92.6872 97.8413C89.8949 97.2021 87.1703 96.5792 84.5703 95.81C81.6182 94.9352 79.9662 92.885 79.178 89.9925C78.4884 87.4246 77.9405 84.8206 77.5368 82.1925C84.9522 79.9609 92.8335 75.9498 101.021 69.5446L100.983 69.5067C97.1397 65.8288 89.9355 58.9333 89.4237 42.5642C89.4237 20.0254 75.0532 0.213972 52.0676 17.2494V17.2521Z" stroke="url(#paint0_radial_310_160)" stroke-width="10" stroke-linejoin="round"/>
<defs>
<radialGradient id="paint0_radial_310_160" cx="0" cy="0" r="1" gradientUnits="userSpaceOnUse" gradientTransform="translate(34 32.5) rotate(45.8401) scale(120.575 114.549)">
<stop stop-color="#F23B2F"/>
<stop offset="1" stop-color="#F19D1F" stop-opacity="0"/>
</radialGradient>
</defs>
</svg>
